{"title":"Great Grand Masti (2016) Tiny 720p x264 DVDRip AAC 5.1 ESub -DDR","uid":15771036,"size":1595777879,"categoryP":"video","categoryS":"hd___movies","magnet":"?xt=urn:btih:8fc1ad30799d9bf4e1e61f11779b374fcadfdac4&amp;dn=Great+Grand+Masti+%282016%29+Tiny+720p+x264+DVDRip+AAC+5.1+ESub+-DDR&amp;tr=udp%3A%2F%2Ftracker.leechers-paradise.org%3A6969&amp;tr=udp%3A%2F%2Fzer0day.ch%3A1337&amp;tr=udp%3A%2F%2Fopen.demonii.com%3A1337&amp;tr=udp%3A%2F%2Ftracker.coppersurfer.tk%3A6969&amp;tr=udp%3A%2F%2Fexodus.desync.com%3A6969","seeders":6,"leechers":7,"uploader":"SaM","files":3,"time":1473203137,"description":"** Great Grand Masti **\r\n\r\n** 2016**\r\n\r\n** Tiny 720p / DVDrip / x264\r\n\r\nHindi Untouched AAC 5.1 **\r\n\r\n** English Subtitle(s) **\r\n\r\n\r\n\r\n[ SCREENS ]\r\n \nhttp://extraimago.com/image/wRKM \nhttp://extraimago.com/image/wRK9 \nhttp://extraimago.com/image/wRK3 \nhttp://extraimago.com/image/wRKb \nhttp://extraimago.com/image/wRKh \nhttp://extraimago.com/image/wRKd \nhttp://extraimago.com/image/wRKI \nhttp://extraimago.com/image/wRKl \nhttp://extraimago.com/image/wRKi \nhttp://extraimago.com/image/wRKm \nhttp://extraimago.com/image/wRKR\r\n\r\n[ Info ]\r\n\r\nSource : DVD9 @ DDR\r\nGeneral\r\nFormat : Matroska\r\nFile size : 1.47 GiB\r\nDuration : 2 h 2 min\r\nOverall bit rate : 1 731 kb/s\r\n\r\n\r\nVideo\r\nFormat : AVC\r\nFormat/Info : Advanced Video Codec\r\nFormat profile :   \r\nFormat settings, CABAC : Yes\r\nFormat settings, ReFrames : 12 frames\r\nCodec ID : V_MPEG4/ISO/AVC\r\nDuration : 2 h 2 min\r\nBit rate : 1 587 kb/s\r\nWidth : 1 280 pixels\r\nHeight : 544 pixels\r\nDisplay aspect ratio : 2.35:1\r\nFrame rate mode : Constant\r\nFrame rate : 23.976 (24000/1001) FPS\r\ncolor space : YUV\r\nChroma subsampling : 4:2:0\r\nBit depth : 8 bits\r\nScan type : Progressive\r\nBits/(Pixel*Frame) : 0.095\r\nStream size : 1.34 GiB (91%)\r\ncolor range : Limited\r\ncolor primaries : BT.709\r\n\r\n\r\nAudio\r\nFormat : AAC\r\nFormat/Info : Advanced Audio Codec\r\nFormat profile : LC\r\nCodec ID : A_AAC\r\nDuration : 2 h 2 min\r\nBit rate : 160 kb/s\r\nChannel(s) : 6 channels\r\nChannel positions : Front: L C R, Side: L R, LFE\r\nSampling rate : 48.0 kHz\r\nFrame rate : 46.875 FPS (1024 spf)\r\nCompression mode : Lossy\r\nDelay relative to video : 9 ms\r\nStream size : 139 MiB (9%)\r\nDefault : Yes\r\nForced : No\r\n\r\n\r\nChapters : YES","torrent":{"xt":"urn:btih:8fc1ad30799d9bf4e1e61f11779b374fcadfdac4","amp;dn":"Great+Grand+Masti+%282016%29+Tiny+720p+x264+DVDRip+AAC+5.1+ESub+-DDR","amp;tr":["udp%3A%2F%2Ftracker.leechers-paradise.org%3A6969","udp%3A%2F%2Fzer0day.ch%3A1337","udp%3A%2F%2Fopen.demonii.com%3A1337","udp%3A%2F%2Ftracker.coppersurfer.tk%3A6969","udp%3A%2F%2Fexodus.desync.com%3A6969"],"infoHash":"8fc1ad30799d9bf4e1e61f11779b374fcadfdac4","infoHashBuffer":{"type":"Buffer","data":[143,193,173,48,121,157,155,244,225,230,31,17,119,155,55,79,202,223,218,196]},"announce":[],"urlList":[]}}